Genre:Animation
Language:English
IMDb:http://www.imdb.com/title/tt2027128/
Source:BluRay.x264.DTS-HDC Thanks!
Encoder:Tony

Format : AVI
Format/Info : Audio Video Interleave
File size : 920 MiB
Duration : 1h 16mn
Overall bit rate : 1 674 Kbps

Video
ID : 0
Format : MPEG-4 Visual
Format profile : Advanced Simple@L5
Format settings, BVOP : 2
Format settings, QPel : No
Format settings, GMC : No warppoints
Format settings, Matrix : Default (H.263)
Muxing mode : Packed bitstream
Codec ID : XVID
Codec ID/Hint : XviD
Duration : 1h 16mn
Bit rate : 1 217 Kbps
Width : 720 pixels
Height : 400 pixels
Display aspect ratio : 16:9
Frame rate : 23.976 fps
Color space : YUV
Chroma subsampling : 4:2:0
Bit depth : 8 bits
Scan type : Progressive
Compression mode : Lossy
Bits/(Pixel*Frame) : 0.176
Stream size : 669 MiB (73%)
Writing library : XviD 64

Audio
ID : 1
Format : AC-3
Format/Info : Audio Coding 3
Mode extension : CM (complete main)
Codec ID : 2000
Duration : 1h 16mn
Bit rate mode : Constant
Bit rate : 448 Kbps
Channel(s) : 6 channels
Channel positions : Front: L C R, Side: L R, LFE
Sampling rate : 48.0 KHz
Bit depth : 16 bits
Compression mode : Lossy
Stream size : 246 MiB (27%)
Alignment : Aligned on interleaves
Interleave, duration : 42 ms (1.00 video frame)
Interleave, preload duration : 512 ms


Plot:
An adaptation of Mark Waid's "Tower of Babel" story from the JLA comic. Ra's al Ghul steals confidential files Batman has compiled on the members of the Justice League, and learns all their weaknesses.